<mxfile host="app.diagrams.net" agent="Mozilla/5.0 (X11; Linux x86_64; rv:135.0) Gecko/20100101 Firefox/135.0" version="26.0.13">
  <diagram name="Page-1" id="f4xiprPjT78rdwn5SXRk">
    <mxGraphModel dx="3231" dy="1281" grid="1" gridSize="10" guides="1" tooltips="1" connect="1" arrows="1" fold="1" page="1" pageScale="1" pageWidth="850" pageHeight="1100" background="none" math="0" shadow="0">
      <root>
        <mxCell id="0" />
        <mxCell id="1" parent="0" />
        <mxCell id="FqOR2kc3bDlg42bkh-04-1" value="" style="endArrow=none;html=1;rounded=0;" edge="1" parent="1">
          <mxGeometry width="50" height="50" relative="1" as="geometry">
            <mxPoint x="80" y="1080" as="sourcePoint" />
            <mxPoint x="80" y="80" as="targetPoint" />
          </mxGeometry>
        </mxCell>
        <mxCell id="FqOR2kc3bDlg42bkh-04-2" value="" style="rounded=1;whiteSpace=wrap;html=1;" vertex="1" parent="1">
          <mxGeometry x="200" y="20" width="440" height="60" as="geometry" />
        </mxCell>
        <mxCell id="FqOR2kc3bDlg42bkh-04-3" value="tcpChat login sequence" style="text;html=1;align=center;verticalAlign=middle;resizable=0;points=[];autosize=1;strokeColor=none;fillColor=none;" vertex="1" parent="1">
          <mxGeometry x="335" y="35" width="180" height="30" as="geometry" />
        </mxCell>
        <mxCell id="FqOR2kc3bDlg42bkh-04-4" value="" style="endArrow=none;html=1;rounded=0;" edge="1" parent="1">
          <mxGeometry width="50" height="50" relative="1" as="geometry">
            <mxPoint x="760" y="1080" as="sourcePoint" />
            <mxPoint x="760" y="80" as="targetPoint" />
          </mxGeometry>
        </mxCell>
        <mxCell id="FqOR2kc3bDlg42bkh-04-6" value="" style="endArrow=classic;startArrow=classic;html=1;rounded=0;" edge="1" parent="1">
          <mxGeometry width="50" height="50" relative="1" as="geometry">
            <mxPoint x="80" y="120" as="sourcePoint" />
            <mxPoint x="760" y="120" as="targetPoint" />
          </mxGeometry>
        </mxCell>
        <mxCell id="FqOR2kc3bDlg42bkh-04-7" value="TCP Handshake" style="text;html=1;align=center;verticalAlign=middle;whiteSpace=wrap;rounded=0;" vertex="1" parent="1">
          <mxGeometry x="390" y="120" width="70" height="30" as="geometry" />
        </mxCell>
        <mxCell id="FqOR2kc3bDlg42bkh-04-8" value="" style="endArrow=classic;html=1;rounded=0;" edge="1" parent="1">
          <mxGeometry width="50" height="50" relative="1" as="geometry">
            <mxPoint x="80" y="160" as="sourcePoint" />
            <mxPoint x="760" y="320" as="targetPoint" />
          </mxGeometry>
        </mxCell>
        <mxCell id="FqOR2kc3bDlg42bkh-04-9" value="Client hello" style="text;html=1;align=center;verticalAlign=middle;whiteSpace=wrap;rounded=0;rotation=15;" vertex="1" parent="1">
          <mxGeometry x="400" y="250" width="60" height="30" as="geometry" />
        </mxCell>
        <mxCell id="FqOR2kc3bDlg42bkh-04-10" value="" style="endArrow=classic;html=1;rounded=0;" edge="1" parent="1">
          <mxGeometry width="50" height="50" relative="1" as="geometry">
            <mxPoint x="760" y="320" as="sourcePoint" />
            <mxPoint x="80" y="470" as="targetPoint" />
          </mxGeometry>
        </mxCell>
        <mxCell id="FqOR2kc3bDlg42bkh-04-11" value="Server hello acknowledge" style="text;html=1;align=center;verticalAlign=middle;whiteSpace=wrap;rounded=0;rotation=-15;" vertex="1" parent="1">
          <mxGeometry x="370" y="390" width="200" height="30" as="geometry" />
        </mxCell>
        <mxCell id="FqOR2kc3bDlg42bkh-04-12" value="" style="endArrow=none;html=1;rounded=0;" edge="1" parent="1">
          <mxGeometry width="50" height="50" relative="1" as="geometry">
            <mxPoint x="40" y="1080" as="sourcePoint" />
            <mxPoint x="40" y="80" as="targetPoint" />
          </mxGeometry>
        </mxCell>
        <mxCell id="FqOR2kc3bDlg42bkh-04-13" value="" style="endArrow=none;html=1;rounded=0;" edge="1" parent="1">
          <mxGeometry width="50" height="50" relative="1" as="geometry">
            <mxPoint x="40" y="80" as="sourcePoint" />
            <mxPoint x="80" y="80" as="targetPoint" />
          </mxGeometry>
        </mxCell>
        <mxCell id="FqOR2kc3bDlg42bkh-04-14" value="" style="endArrow=none;html=1;rounded=0;" edge="1" parent="1">
          <mxGeometry width="50" height="50" relative="1" as="geometry">
            <mxPoint x="760" y="80" as="sourcePoint" />
            <mxPoint x="800" y="80" as="targetPoint" />
          </mxGeometry>
        </mxCell>
        <mxCell id="FqOR2kc3bDlg42bkh-04-15" value="" style="endArrow=none;html=1;rounded=0;" edge="1" parent="1">
          <mxGeometry width="50" height="50" relative="1" as="geometry">
            <mxPoint x="800" y="1080" as="sourcePoint" />
            <mxPoint x="800" y="80" as="targetPoint" />
          </mxGeometry>
        </mxCell>
        <mxCell id="FqOR2kc3bDlg42bkh-04-16" value="Client" style="text;html=1;align=center;verticalAlign=middle;resizable=0;points=[];autosize=1;strokeColor=none;fillColor=none;rotation=-30;" vertex="1" parent="1">
          <mxGeometry y="50" width="70" height="30" as="geometry" />
        </mxCell>
        <mxCell id="FqOR2kc3bDlg42bkh-04-17" value="Server" style="text;html=1;align=center;verticalAlign=middle;resizable=0;points=[];autosize=1;strokeColor=none;fillColor=none;rotation=30;" vertex="1" parent="1">
          <mxGeometry x="770" y="50" width="70" height="30" as="geometry" />
        </mxCell>
        <mxCell id="FqOR2kc3bDlg42bkh-04-18" value="" style="endArrow=classic;html=1;rounded=0;" edge="1" parent="1">
          <mxGeometry width="50" height="50" relative="1" as="geometry">
            <mxPoint x="80" y="470" as="sourcePoint" />
            <mxPoint x="760" y="650" as="targetPoint" />
          </mxGeometry>
        </mxCell>
        <mxCell id="FqOR2kc3bDlg42bkh-04-19" value="&lt;div&gt;Client login request&lt;/div&gt;" style="text;html=1;align=center;verticalAlign=middle;resizable=0;points=[];autosize=1;strokeColor=none;fillColor=none;rotation=15;" vertex="1" parent="1">
          <mxGeometry x="355" y="560" width="160" height="30" as="geometry" />
        </mxCell>
        <mxCell id="FqOR2kc3bDlg42bkh-04-20" value="" style="endArrow=classic;html=1;rounded=0;" edge="1" parent="1">
          <mxGeometry width="50" height="50" relative="1" as="geometry">
            <mxPoint x="760" y="650" as="sourcePoint" />
            <mxPoint x="80" y="800" as="targetPoint" />
          </mxGeometry>
        </mxCell>
        <mxCell id="FqOR2kc3bDlg42bkh-04-21" value="" style="endArrow=classic;html=1;rounded=0;" edge="1" parent="1">
          <mxGeometry width="50" height="50" relative="1" as="geometry">
            <mxPoint x="760" y="680" as="sourcePoint" />
            <mxPoint x="80" y="830" as="targetPoint" />
          </mxGeometry>
        </mxCell>
        <mxCell id="FqOR2kc3bDlg42bkh-04-22" value="OR" style="text;html=1;align=center;verticalAlign=middle;resizable=0;points=[];autosize=1;strokeColor=none;fillColor=none;rotation=-15;" vertex="1" parent="1">
          <mxGeometry x="415" y="720" width="40" height="30" as="geometry" />
        </mxCell>
        <mxCell id="FqOR2kc3bDlg42bkh-04-23" value="Server session info" style="text;html=1;align=center;verticalAlign=middle;resizable=0;points=[];autosize=1;strokeColor=none;fillColor=none;rotation=-15;" vertex="1" parent="1">
          <mxGeometry x="370" y="750" width="160" height="30" as="geometry" />
        </mxCell>
        <mxCell id="FqOR2kc3bDlg42bkh-04-24" value="Server login error" style="text;html=1;align=center;verticalAlign=middle;resizable=0;points=[];autosize=1;strokeColor=none;fillColor=none;rotation=-15;" vertex="1" parent="1">
          <mxGeometry x="355" y="690" width="150" height="30" as="geometry" />
        </mxCell>
        <mxCell id="FqOR2kc3bDlg42bkh-04-26" value="" style="endArrow=none;html=1;rounded=0;" edge="1" parent="1">
          <mxGeometry width="50" height="50" relative="1" as="geometry">
            <mxPoint x="40" y="800" as="sourcePoint" />
            <mxPoint x="50" y="790" as="targetPoint" />
          </mxGeometry>
        </mxCell>
        <mxCell id="FqOR2kc3bDlg42bkh-04-27" value="" style="endArrow=none;html=1;rounded=0;" edge="1" parent="1">
          <mxGeometry width="50" height="50" relative="1" as="geometry">
            <mxPoint x="50" y="790" as="sourcePoint" />
            <mxPoint x="60" y="800" as="targetPoint" />
          </mxGeometry>
        </mxCell>
        <mxCell id="FqOR2kc3bDlg42bkh-04-28" value="" style="endArrow=none;html=1;rounded=0;" edge="1" parent="1">
          <mxGeometry width="50" height="50" relative="1" as="geometry">
            <mxPoint x="60" y="800" as="sourcePoint" />
            <mxPoint x="70" y="790" as="targetPoint" />
            <Array as="points">
              <mxPoint x="70" y="790" />
            </Array>
          </mxGeometry>
        </mxCell>
        <mxCell id="FqOR2kc3bDlg42bkh-04-29" value="" style="endArrow=none;html=1;rounded=0;" edge="1" parent="1">
          <mxGeometry width="50" height="50" relative="1" as="geometry">
            <mxPoint x="70" y="790" as="sourcePoint" />
            <mxPoint x="80" y="800" as="targetPoint" />
          </mxGeometry>
        </mxCell>
        <mxCell id="FqOR2kc3bDlg42bkh-04-31" value="" style="endArrow=none;html=1;rounded=0;" edge="1" parent="1">
          <mxGeometry width="50" height="50" relative="1" as="geometry">
            <mxPoint x="80" y="840" as="sourcePoint" />
            <mxPoint x="760" y="840" as="targetPoint" />
          </mxGeometry>
        </mxCell>
        <mxCell id="FqOR2kc3bDlg42bkh-04-32" value="End of handshake" style="text;html=1;align=center;verticalAlign=middle;resizable=0;points=[];autosize=1;strokeColor=none;fillColor=none;" vertex="1" parent="1">
          <mxGeometry x="355" y="810" width="140" height="30" as="geometry" />
        </mxCell>
        <mxCell id="FqOR2kc3bDlg42bkh-04-33" value="" style="endArrow=classic;startArrow=classic;html=1;rounded=0;" edge="1" parent="1">
          <mxGeometry width="50" height="50" relative="1" as="geometry">
            <mxPoint x="80" y="880" as="sourcePoint" />
            <mxPoint x="760" y="880" as="targetPoint" />
          </mxGeometry>
        </mxCell>
        <mxCell id="FqOR2kc3bDlg42bkh-04-34" value="&lt;span class=&quot;headword hdb tw-bw dhw dpos-h_hw&quot;&gt;&lt;span class=&quot;hw dhw&quot;&gt;Synchronize segments&lt;/span&gt;&lt;/span&gt;" style="text;html=1;align=center;verticalAlign=middle;resizable=0;points=[];autosize=1;strokeColor=none;fillColor=none;" vertex="1" parent="1">
          <mxGeometry x="345" y="850" width="160" height="30" as="geometry" />
        </mxCell>
        <mxCell id="FqOR2kc3bDlg42bkh-04-37" value="" style="endArrow=classic;startArrow=classic;html=1;rounded=0;" edge="1" parent="1">
          <mxGeometry width="50" height="50" relative="1" as="geometry">
            <mxPoint x="80" y="930" as="sourcePoint" />
            <mxPoint x="760" y="930" as="targetPoint" />
          </mxGeometry>
        </mxCell>
        <mxCell id="FqOR2kc3bDlg42bkh-04-38" value="" style="endArrow=none;html=1;rounded=0;" edge="1" parent="1">
          <mxGeometry width="50" height="50" relative="1" as="geometry">
            <mxPoint x="40" y="930" as="sourcePoint" />
            <mxPoint x="50" y="920" as="targetPoint" />
          </mxGeometry>
        </mxCell>
        <mxCell id="FqOR2kc3bDlg42bkh-04-39" value="" style="endArrow=none;html=1;rounded=0;" edge="1" parent="1">
          <mxGeometry width="50" height="50" relative="1" as="geometry">
            <mxPoint x="50" y="920" as="sourcePoint" />
            <mxPoint x="60" y="930" as="targetPoint" />
          </mxGeometry>
        </mxCell>
        <mxCell id="FqOR2kc3bDlg42bkh-04-40" value="" style="endArrow=none;html=1;rounded=0;" edge="1" parent="1">
          <mxGeometry width="50" height="50" relative="1" as="geometry">
            <mxPoint x="60" y="930" as="sourcePoint" />
            <mxPoint x="70" y="920" as="targetPoint" />
          </mxGeometry>
        </mxCell>
        <mxCell id="FqOR2kc3bDlg42bkh-04-41" value="" style="endArrow=none;html=1;rounded=0;" edge="1" parent="1">
          <mxGeometry width="50" height="50" relative="1" as="geometry">
            <mxPoint x="70" y="920" as="sourcePoint" />
            <mxPoint x="80" y="930" as="targetPoint" />
          </mxGeometry>
        </mxCell>
        <mxCell id="FqOR2kc3bDlg42bkh-04-42" value="" style="endArrow=none;html=1;rounded=0;" edge="1" parent="1">
          <mxGeometry width="50" height="50" relative="1" as="geometry">
            <mxPoint x="760" y="930" as="sourcePoint" />
            <mxPoint x="770" y="920" as="targetPoint" />
          </mxGeometry>
        </mxCell>
        <mxCell id="FqOR2kc3bDlg42bkh-04-44" value="" style="endArrow=none;html=1;rounded=0;" edge="1" parent="1">
          <mxGeometry width="50" height="50" relative="1" as="geometry">
            <mxPoint x="770" y="920" as="sourcePoint" />
            <mxPoint x="780" y="930" as="targetPoint" />
          </mxGeometry>
        </mxCell>
        <mxCell id="FqOR2kc3bDlg42bkh-04-45" value="" style="endArrow=none;html=1;rounded=0;" edge="1" parent="1">
          <mxGeometry width="50" height="50" relative="1" as="geometry">
            <mxPoint x="780" y="930" as="sourcePoint" />
            <mxPoint x="790" y="920" as="targetPoint" />
          </mxGeometry>
        </mxCell>
        <mxCell id="FqOR2kc3bDlg42bkh-04-46" value="" style="endArrow=none;html=1;rounded=0;" edge="1" parent="1">
          <mxGeometry width="50" height="50" relative="1" as="geometry">
            <mxPoint x="790" y="920" as="sourcePoint" />
            <mxPoint x="800" y="930" as="targetPoint" />
          </mxGeometry>
        </mxCell>
        <mxCell id="FqOR2kc3bDlg42bkh-04-47" value="Session terminate" style="text;html=1;align=center;verticalAlign=middle;resizable=0;points=[];autosize=1;strokeColor=none;fillColor=none;" vertex="1" parent="1">
          <mxGeometry x="355" y="900" width="140" height="30" as="geometry" />
        </mxCell>
        <mxCell id="FqOR2kc3bDlg42bkh-04-51" value="Client hello" style="text;html=1;align=center;verticalAlign=middle;whiteSpace=wrap;rounded=0;" vertex="1" parent="1">
          <mxGeometry x="120" y="1000" width="60" height="30" as="geometry" />
        </mxCell>
        <mxCell id="FqOR2kc3bDlg42bkh-04-52" value="Server hello&lt;br&gt;acknowledge" style="text;html=1;align=center;verticalAlign=middle;resizable=0;points=[];autosize=1;strokeColor=none;fillColor=none;" vertex="1" parent="1">
          <mxGeometry x="95" y="1035" width="110" height="40" as="geometry" />
        </mxCell>
        <mxCell id="FqOR2kc3bDlg42bkh-04-53" value="Client login&lt;br&gt;request" style="text;html=1;align=center;verticalAlign=middle;resizable=0;points=[];autosize=1;strokeColor=none;fillColor=none;" vertex="1" parent="1">
          <mxGeometry x="260" y="1000" width="110" height="40" as="geometry" />
        </mxCell>
        <mxCell id="FqOR2kc3bDlg42bkh-04-54" value="Server session&lt;br&gt;info" style="text;html=1;align=center;verticalAlign=middle;resizable=0;points=[];autosize=1;strokeColor=none;fillColor=none;" vertex="1" parent="1">
          <mxGeometry x="255" y="1040" width="120" height="40" as="geometry" />
        </mxCell>
        <mxCell id="FqOR2kc3bDlg42bkh-04-55" value="Server login&lt;br&gt;error" style="text;html=1;align=center;verticalAlign=middle;resizable=0;points=[];autosize=1;strokeColor=none;fillColor=none;" vertex="1" parent="1">
          <mxGeometry x="425" y="1000" width="110" height="40" as="geometry" />
        </mxCell>
        <mxCell id="FqOR2kc3bDlg42bkh-04-56" value="Sync segments" style="text;html=1;align=center;verticalAlign=middle;resizable=0;points=[];autosize=1;strokeColor=none;fillColor=none;" vertex="1" parent="1">
          <mxGeometry x="425" y="1045" width="110" height="30" as="geometry" />
        </mxCell>
        <mxCell id="FqOR2kc3bDlg42bkh-04-57" value="Session terminate" style="text;html=1;align=center;verticalAlign=middle;resizable=0;points=[];autosize=1;strokeColor=none;fillColor=none;" vertex="1" parent="1">
          <mxGeometry x="590" y="980" width="140" height="30" as="geometry" />
        </mxCell>
        <mxCell id="FqOR2kc3bDlg42bkh-04-59" value="" style="endArrow=classic;html=1;rounded=0;" edge="1" parent="1">
          <mxGeometry width="50" height="50" relative="1" as="geometry">
            <mxPoint x="180" y="1014.76" as="sourcePoint" />
            <mxPoint x="200" y="1014.76" as="targetPoint" />
          </mxGeometry>
        </mxCell>
        <mxCell id="FqOR2kc3bDlg42bkh-04-60" value="&lt;div&gt;0x01&lt;/div&gt;" style="text;html=1;align=center;verticalAlign=middle;resizable=0;points=[];autosize=1;strokeColor=none;fillColor=none;" vertex="1" parent="1">
          <mxGeometry x="200" y="1000" width="50" height="30" as="geometry" />
        </mxCell>
        <mxCell id="FqOR2kc3bDlg42bkh-04-61" value="" style="endArrow=classic;html=1;rounded=0;" edge="1" parent="1">
          <mxGeometry width="50" height="50" relative="1" as="geometry">
            <mxPoint x="200" y="1054.76" as="sourcePoint" />
            <mxPoint x="220" y="1054.76" as="targetPoint" />
          </mxGeometry>
        </mxCell>
        <mxCell id="FqOR2kc3bDlg42bkh-04-63" value="" style="shape=parallelogram;perimeter=parallelogramPerimeter;whiteSpace=wrap;html=1;fixedSize=1;" vertex="1" parent="1">
          <mxGeometry x="331" y="942.5" width="187.5" height="45" as="geometry" />
        </mxCell>
        <mxCell id="FqOR2kc3bDlg42bkh-04-62" value="0x02" style="text;html=1;align=center;verticalAlign=middle;resizable=0;points=[];autosize=1;strokeColor=none;fillColor=none;" vertex="1" parent="1">
          <mxGeometry x="218" y="1040" width="50" height="30" as="geometry" />
        </mxCell>
        <mxCell id="FqOR2kc3bDlg42bkh-04-64" value="&lt;font style=&quot;font-size: 14px;&quot;&gt;tcpChat OPCODES&lt;/font&gt;" style="text;html=1;align=center;verticalAlign=middle;resizable=0;points=[];autosize=1;strokeColor=none;fillColor=none;" vertex="1" parent="1">
          <mxGeometry x="355" y="950" width="150" height="30" as="geometry" />
        </mxCell>
        <mxCell id="FqOR2kc3bDlg42bkh-04-66" value="" style="endArrow=classic;html=1;rounded=0;" edge="1" parent="1">
          <mxGeometry width="50" height="50" relative="1" as="geometry">
            <mxPoint x="360" y="1019.76" as="sourcePoint" />
            <mxPoint x="380" y="1019.76" as="targetPoint" />
          </mxGeometry>
        </mxCell>
        <mxCell id="FqOR2kc3bDlg42bkh-04-67" value="0x03" style="text;html=1;align=center;verticalAlign=middle;resizable=0;points=[];autosize=1;strokeColor=none;fillColor=none;" vertex="1" parent="1">
          <mxGeometry x="375" y="1005" width="50" height="30" as="geometry" />
        </mxCell>
        <mxCell id="FqOR2kc3bDlg42bkh-04-69" value="" style="endArrow=classic;html=1;rounded=0;" edge="1" parent="1">
          <mxGeometry width="50" height="50" relative="1" as="geometry">
            <mxPoint x="370" y="1059.76" as="sourcePoint" />
            <mxPoint x="390" y="1059.76" as="targetPoint" />
          </mxGeometry>
        </mxCell>
        <mxCell id="FqOR2kc3bDlg42bkh-04-70" value="0x04" style="text;html=1;align=center;verticalAlign=middle;resizable=0;points=[];autosize=1;strokeColor=none;fillColor=none;" vertex="1" parent="1">
          <mxGeometry x="385" y="1045" width="50" height="30" as="geometry" />
        </mxCell>
        <mxCell id="FqOR2kc3bDlg42bkh-04-71" value="" style="endArrow=classic;html=1;rounded=0;" edge="1" parent="1">
          <mxGeometry width="50" height="50" relative="1" as="geometry">
            <mxPoint x="530" y="1019.76" as="sourcePoint" />
            <mxPoint x="550" y="1019.76" as="targetPoint" />
          </mxGeometry>
        </mxCell>
        <mxCell id="FqOR2kc3bDlg42bkh-04-72" value="0x05" style="text;html=1;align=center;verticalAlign=middle;resizable=0;points=[];autosize=1;strokeColor=none;fillColor=none;" vertex="1" parent="1">
          <mxGeometry x="550" y="1005" width="50" height="30" as="geometry" />
        </mxCell>
        <mxCell id="FqOR2kc3bDlg42bkh-04-73" value="0x06" style="text;html=1;align=center;verticalAlign=middle;resizable=0;points=[];autosize=1;strokeColor=none;fillColor=none;" vertex="1" parent="1">
          <mxGeometry x="550" y="1045" width="50" height="30" as="geometry" />
        </mxCell>
        <mxCell id="FqOR2kc3bDlg42bkh-04-74" value="" style="endArrow=classic;html=1;rounded=0;" edge="1" parent="1">
          <mxGeometry width="50" height="50" relative="1" as="geometry">
            <mxPoint x="535" y="1059.76" as="sourcePoint" />
            <mxPoint x="555" y="1059.76" as="targetPoint" />
          </mxGeometry>
        </mxCell>
        <mxCell id="FqOR2kc3bDlg42bkh-04-75" value="" style="endArrow=classic;html=1;rounded=0;exitX=0.502;exitY=1.081;exitDx=0;exitDy=0;exitPerimeter=0;" edge="1" parent="1" source="FqOR2kc3bDlg42bkh-04-57">
          <mxGeometry width="50" height="50" relative="1" as="geometry">
            <mxPoint x="660" y="1019.76" as="sourcePoint" />
            <mxPoint x="660" y="1040" as="targetPoint" />
          </mxGeometry>
        </mxCell>
        <mxCell id="FqOR2kc3bDlg42bkh-04-77" value="0x07" style="text;html=1;align=center;verticalAlign=middle;resizable=0;points=[];autosize=1;strokeColor=none;fillColor=none;" vertex="1" parent="1">
          <mxGeometry x="635" y="1040" width="50" height="30" as="geometry" />
        </mxCell>
      </root>
    </mxGraphModel>
  </diagram>
</mxfile>
